<svg xmlns="http://www.w3.org/2000/svg" width="160" height="64" viewBox="0 0 160 64" role="img" aria-label="Apple Pay">
  <rect width="160" height="64" rx="14" fill="#000"/>
  <path fill="#fff" d="M39.3 21.4c1.2-1.5 2-3.4 1.8-5.4-1.8.1-4 .9-5.3 2.4-1.2 1.3-2.2 3.3-1.9 5.2 2 .2 4-1 5.4-2.2Zm1.7 2.6c-2.9-.2-5.4 1.7-6.8 1.7-1.4 0-3.5-1.6-5.8-1.5-3 .1-5.8 1.8-7.3 4.5-3.1 5.4-.8 13.4 2.2 17.8 1.5 2.1 3.2 4.5 5.5 4.4 2.2-.1 3-1.4 5.7-1.4s3.4 1.4 5.8 1.4c2.4 0 3.9-2.2 5.3-4.3 1.7-2.5 2.4-4.9 2.4-5-.1 0-4.7-1.8-4.8-7.1 0-4.4 3.6-6.5 3.8-6.7-2-3-5.2-3.7-6-3.8Z"/>
  <text x="58" y="42" fill="#fff" font-family="Arial, Helvetica, sans-serif" font-size="27" font-weight="700">Pay</text>
</svg>
