<svg xmlns="http://www.w3.org/2000/svg" width="160" height="64" viewBox="0 0 160 64" role="img" aria-label="Google Pay">
  <rect width="160" height="64" rx="14" fill="#000"/>
  <path fill="#4285F4" d="M35.7 32.4c0-1 .1-1.8.3-2.6H23.4v5h7.2a6.1 6.1 0 0 1-2.7 4v3.3h4.4c2.5-2.3 3.4-5.8 3.4-9.7Z"/>
  <path fill="#34A853" d="M23.4 45.5c3.6 0 6.6-1.2 8.9-3.3l-4.4-3.3c-1.2.8-2.7 1.3-4.5 1.3-3.5 0-6.4-2.3-7.5-5.5h-4.5v3.4a13.4 13.4 0 0 0 12 7.4Z"/>
  <path fill="#FBBC04" d="M15.9 34.7a8 8 0 0 1 0-5.2v-3.4h-4.5a13.4 13.4 0 0 0 0 12l4.5-3.4Z"/>
  <path fill="#EA4335" d="M23.4 24c2 0 3.8.7 5.2 2l3.9-3.9a13.2 13.2 0 0 0-9.1-3.5 13.4 13.4 0 0 0-12 7.5l4.5 3.4c1.1-3.2 4-5.5 7.5-5.5Z"/>
  <text x="45" y="42" fill="#fff" font-family="Arial, Helvetica, sans-serif" font-size="27" font-weight="700">Pay</text>
</svg>
